<?xml version="1.0" standalone="no"?>
<!DOCTYPE svg PUBLIC "-//W3C//DTD SVG 20010904//EN"
 "http://www.w3.org/TR/2001/REC-SVG-20010904/DTD/svg10.dtd">
<svg version="1.0" xmlns="http://www.w3.org/2000/svg"
 width="112.000000pt" height="112.000000pt" viewBox="0 0 112.000000 112.000000"
 preserveAspectRatio="xMidYMid meet">
<metadata>
Created by potrace 1.14, written by Peter Selinger 2001-2017
</metadata>
<g transform="translate(0.000000,112.000000) scale(0.100000,-0.100000)"
fill="#000000" stroke="none">
<path d="M161 1078 c-80 -82 -102 -316 -45 -484 l16 -46 -32 -27 c-43 -36 -51
-90 -19 -120 13 -12 36 -25 50 -28 21 -4 25 -9 21 -29 -3 -15 2 -32 12 -43 13
-15 15 -24 6 -47 -18 -46 -4 -91 35 -116 31 -21 32 -24 20 -48 -7 -14 -16 -40
-20 -58 l-7 -32 409 2 c407 3 408 3 408 24 0 12 15 33 33 48 45 39 44 83 -6
179 -38 73 -38 73 -20 98 15 20 17 30 9 52 -6 15 -8 40 -5 55 6 30 -19 68 -37
57 -5 -4 -9 13 -9 37 0 25 -8 56 -19 74 -21 34 -80 84 -99 84 -7 0 -13 5 -13
10 -3 19 -5 25 -21 55 -9 17 -28 37 -43 45 -32 17 -29 35 19 117 40 68 42 77
32 120 -8 36 -42 53 -91 46 -42 -6 -71 -27 -97 -72 -22 -38 -23 -39 -83 -40
-55 -1 -61 1 -62 21 -3 36 -18 43 -63 29 -25 -7 -62 -32 -93 -62 -28 -27 -52
-49 -54 -49 -2 0 -3 17 -3 38 0 82 -34 142 -81 142 -9 0 -31 -14 -48 -32z"/>
</g>
</svg>
